<?xml version="1.0" standalone="no"?>
<!DOCTYPE svg PUBLIC "-//W3C//DTD SVG 20010904//EN"
 "http://www.w3.org/TR/2001/REC-SVG-20010904/DTD/svg10.dtd">
<svg version="1.0" xmlns="http://www.w3.org/2000/svg"
 width="282.000000pt" height="282.000000pt" viewBox="0 0 282.000000 282.000000"
 preserveAspectRatio="xMidYMid meet">
<metadata>
Created by potrace 1.16, written by Peter Selinger 2001-2019
</metadata>
<g transform="translate(0.000000,282.000000) scale(0.100000,-0.100000)"
fill="#000000" stroke="none">
<path d="M985 2789 c-44 -39 -62 -94 -46 -140 6 -17 11 -63 11 -100 0 -69 0
-69 -63 -154 -153 -207 -341 -543 -429 -765 -83 -212 -137 -417 -159 -603 -16
-134 -13 -136 105 -96 144 50 313 51 487 2 l59 -16 0 -127 0 -127 -57 -6
c-161 -18 -471 -29 -660 -24 -178 5 -214 3 -224 -9 -9 -12 0 -46 51 -177 35
-89 74 -184 87 -210 49 -99 157 -190 263 -221 47 -14 156 -16 925 -16 964 0
925 -2 1030 64 28 18 69 53 91 78 22 25 113 178 203 339 123 222 161 297 154
309 -16 24 -119 32 -368 26 -295 -7 -507 -28 -1080 -106 -82 -11 -153 -20
-157 -20 -5 0 -8 49 -8 109 l0 109 83 11 c199 26 275 31 477 31 205 0 380 -14
495 -40 45 -10 51 -9 66 9 11 13 21 59 29 123 22 174 -13 355 -101 533 -143
289 -494 610 -941 860 l-108 60 0 54 c0 29 5 71 12 92 15 53 -2 108 -47 148
-31 27 -44 31 -90 31 -46 0 -59 -4 -90 -31z m143 -49 c42 -39 21 -120 -33
-134 -29 -7 -79 15 -89 39 -31 82 60 152 122 95z m2 -1125 c0 -1040 7 -945
-71 -945 l-39 0 0 939 0 940 55 0 55 0 0 -934z m205 730 c292 -171 570 -397
717 -583 112 -141 196 -312 224 -460 15 -77 18 -219 7 -286 l-6 -38 -51 6
c-170 23 -338 36 -456 36 -122 0 -401 -20 -503 -37 -22 -3 -38 -2 -35 3 109
226 144 354 155 567 11 229 -34 499 -127 758 -16 46 -30 85 -30 87 0 7 21 -3
105 -53z m-375 -663 c0 -379 -2 -691 -5 -693 -2 -3 -46 6 -97 19 -124 32 -307
34 -418 4 -41 -11 -76 -19 -78 -17 -7 6 31 208 58 312 59 226 179 506 319 743
78 132 204 320 214 320 4 0 7 -310 7 -688z m306 383 c52 -209 69 -459 43 -641
-13 -92 -49 -220 -83 -295 l-24 -54 0 600 -1 600 20 -55 c11 -30 31 -100 45
-155z m1464 -1320 c0 -3 -18 -39 -41 -80 l-41 -75 -136 0 c-210 0 -497 -22
-787 -60 -438 -57 -738 -93 -880 -105 -202 -18 -616 -31 -666 -21 -34 6 -38
11 -66 84 l-30 77 331 6 c382 8 533 20 1016 85 271 36 479 61 615 73 66 6 136
13 155 15 63 5 530 6 530 1z m-120 -219 c0 -2 -20 -40 -45 -83 l-44 -80 -173
-7 c-217 -8 -450 -31 -818 -81 -486 -64 -757 -90 -1060 -101 l-196 -7 -27 33
c-28 33 -59 89 -71 125 -6 20 -1 20 222 21 292 2 515 20 937 74 533 69 701 88
925 103 71 5 350 7 350 3z m-130 -232 c0 -3 -11 -25 -25 -49 -35 -59 -105
-122 -173 -153 l-57 -27 -885 0 c-859 0 -886 1 -935 20 l-50 20 55 6 c30 4 98
8 150 8 175 2 439 28 885 86 399 52 644 79 800 88 101 6 235 7 235 1z"/>
</g>
</svg>
